#N canvas 1 25 1224 847 12;
#X obj 69 50 notein;
#X floatatom 69 79 5 0 0 0 - - - 0;
#X floatatom 116 79 5 0 0 0 - - - 0;
#X floatatom 163 79 5 0 0 0 - - - 0;
#X obj 235 53 ctlin;
#X floatatom 235 82 5 0 0 0 - - - 0;
#X floatatom 282 82 5 0 0 0 - - - 0;
#X floatatom 329 82 5 0 0 0 - - - 0;
#X obj 388 52 bendin;
#X obj 388 109 bendout;
#X floatatom 388 81 5 0 0 0 - - - 0;
#X floatatom 435 81 5 0 0 0 - - - 0;
#X obj 69 105 noteout 1;
#X obj 235 143 ctlout;
#X obj 463 119 cnv 19 700 700 empty empty SEQUENCER 20 24 0 24 #b8d4f8 #404040 0;
#X obj 856 593 makenote;
#X obj 856 622 noteout 1;
#X obj 856 530 +;
#X msg 856 481 60;
#X msg 936 481 67;
#X msg 976 481 70, f 4;
#X msg 1023 481 72;
#X msg 896 481 63;
#X floatatom 1062 448 5 -2 2 0 - - - 0;
#X obj 1063 481 * 12;
#X msg 856 559 \$1 80 100;
#X obj 856 394 f;
#X obj 891 394 + 1;
#X obj 856 423 mod 5;
#X obj 856 452 route 0 1 2 3 4;
#X msg 874 365 0;
#X obj 856 335 metro 125;
#X obj 856 306 tgl 19 0 empty empty empty 0 -10 0 12 #fcfcfc #000000 #000000 0 1;
#X obj 636 501 route 0 1 2 3 4;
#X msg 636 579 \$1 69 1;
#X obj 636 608 ctlout 1;
#X msg 636 530 55;
#X msg 676 530 99;
#X msg 802 530 108;
#X msg 716 530 80;
#X msg 756 530 90, f 4;
#X obj 636 443 f;
#X obj 671 443 + 1;
#X obj 636 472 mod 5;
#X msg 654 413 0;
#X obj 636 384 metro 500;
#X floatatom 829 197 5 0 0 0 - - - 0;
#X obj 696 355 / 8;
#X obj 636 355 tgl 19 0 empty empty empty 0 -10 0 12 #fcfcfc #000000 #000000 0 1;
#X obj 636 306 tgl 19 0 empty empty empty 0 -10 0 12 #fcfcfc #000000 #000000 0 1;
#X text 632 285 synchro start;
#X text 805 173 tempo in ms;
#X text 631 332 filter sequence;
#X text 852 285 note sequence;
#X text 701 445 counter;
#X text 921 394 counter;
#X obj 69 214 cnv 19 100 325 empty empty Cutoff 20 10 0 16 #ffccdc #404040 0;
#X msg 89 491 \$1 69 1;
#X floatatom 89 463 5 0 127 0 - - - 0;
#X obj 89 259 vsl 19 162 0 127 0 0 empty empty empty 0 -9 0 12 #fcfcfc #000000 #000000 0 1;
#X obj 89 434 i;
#X obj 180 214 cnv 19 100 325 empty empty Resonance 5 10 0 16 #bdf8cb #404040 0;
#X msg 201 491 \$1 69 1;
#X floatatom 201 463 5 0 127 0 - - - 0;
#X obj 201 259 vsl 19 162 0 127 0 0 empty empty empty 0 -9 0 12 #fcfcfc #000000 #000000 0 1;
#X obj 201 434 i;
#X text 588 27 *See video for setup and explanation. Editor has been organized since making the video. The color backgrounds are canvases. These will be explained in the very near future to make GUIs. They are only used here to visually organize what was discussed in the video.;
#X text 88 648 Spend more time here. The Sequencer is more for reference to cover Pd theory. When building the GUI \, things like messages and outputs will not be visible. In edit mode \, canvases can be moved independently of objects.;
#X obj 89 560 ctlout;
#X connect 0 0 1 0;
#X connect 0 1 2 0;
#X connect 0 2 3 0;
#X connect 1 0 12 0;
#X connect 2 0 12 1;
#X connect 4 0 5 0;
#X connect 4 1 6 0;
#X connect 4 2 7 0;
#X connect 5 0 13 0;
#X connect 6 0 13 1;
#X connect 7 0 13 2;
#X connect 8 0 10 0;
#X connect 8 1 11 0;
#X connect 10 0 9 0;
#X connect 11 0 9 1;
#X connect 15 0 16 0;
#X connect 15 1 16 1;
#X connect 17 0 25 0;
#X connect 18 0 17 0;
#X connect 19 0 17 0;
#X connect 20 0 17 0;
#X connect 21 0 17 0;
#X connect 22 0 17 0;
#X connect 23 0 24 0;
#X connect 24 0 17 1;
#X connect 25 0 15 0;
#X connect 26 0 27 0;
#X connect 26 0 28 0;
#X connect 27 0 26 1;
#X connect 28 0 29 0;
#X connect 29 0 18 0;
#X connect 29 1 22 0;
#X connect 29 2 19 0;
#X connect 29 3 20 0;
#X connect 29 4 21 0;
#X connect 30 0 26 1;
#X connect 31 0 26 0;
#X connect 32 0 31 0;
#X connect 33 0 36 0;
#X connect 33 1 37 0;
#X connect 33 2 39 0;
#X connect 33 3 40 0;
#X connect 33 4 38 0;
#X connect 34 0 35 0;
#X connect 36 0 34 0;
#X connect 37 0 34 0;
#X connect 38 0 34 0;
#X connect 39 0 34 0;
#X connect 40 0 34 0;
#X connect 41 0 42 0;
#X connect 41 0 43 0;
#X connect 42 0 41 1;
#X connect 43 0 33 0;
#X connect 44 0 41 1;
#X connect 45 0 41 0;
#X connect 46 0 31 1;
#X connect 46 0 47 0;
#X connect 47 0 45 1;
#X connect 48 0 45 0;
#X connect 49 0 32 0;
#X connect 49 0 48 0;
#X connect 57 0 68 0;
#X connect 58 0 57 0;
#X connect 59 0 60 0;
#X connect 60 0 58 0;
#X connect 62 0 68 0;
#X connect 63 0 62 0;
#X connect 64 0 65 0;
#X connect 65 0 63 0;
